<svg width="1024" height="1024" viewBox="0 0 1024 1024" fill="none" xmlns="http://www.w3.org/2000/svg">
<rect width="1024" height="1024" rx="256" fill="black"/>
<path fill-rule="evenodd" clip-rule="evenodd" d="M671.731 199.306C668.021 184.822 666.048 169.641 666.048 154H535V409.857V452.015V671.4C535 731.063 486.999 779.429 427.366 779.429C367.732 779.429 319.39 731.063 319.39 671.4C319.39 611.738 367.732 563.371 427.366 563.371C439.281 563.371 450.282 565.302 461 568.868V429.275C449.857 427.719 438.937 426.914 427.366 426.914C292.406 426.914 183 536.374 183 671.4C183 806.426 292.406 915.886 427.366 915.886C560.425 915.886 668.98 809.485 672 677.086V671.4V412.346C722.161 446.651 782.555 466.714 847.902 466.714V335.943C763.1 335.943 691.856 277.87 671.731 199.306Z" fill="#FE2C55"/>
<path d="M393.365 392.914C404.937 392.914 415.857 393.719 427 395.275V426.915C238.446 546 238.446 602 238.446 826.483C183.838 781.646 149 713.594 149 637.4C149 502.375 258.406 392.914 393.365 392.914Z" fill="#25F4EE"/>
<path d="M632.048 120C632.048 131.62 633.139 142.985 635.22 154C635.22 852 427 940 335.939 728.897C352.573 739.369 372.261 745.429 393.365 745.429C452.998 745.429 501 697.063 501 637.4V120H632.048Z" fill="#25F4EE"/>
<path d="M703.463 264.559C734.081 288.008 772.364 301.942 813.901 301.942V332.766C710.5 332.766 703.463 264.559 703.463 264.559Z" fill="#25F4EE"/>
<path d="M635.22 154C635.94 157.812 636.778 161.582 637.731 165.306C647.999 205.388 671.573 240.134 703.463 264.559C730.138 299.39 769.117 324.291 813.901 332.766V432.714C748.555 432.714 688.161 412.651 638 378.346V643.086C634.98 775.485 526.425 881.886 393.365 881.886C334.562 881.886 280.611 861.104 238.446 826.483C203.799 784.285 183 730.273 183 671.4C183 536.497 292.209 427.112 427 426.915V534.868C416.282 531.302 405.28 529.371 393.365 529.371C333.732 529.371 285.39 577.738 285.39 637.4C285.39 675.948 305.572 709.779 335.939 728.897C355.053 759.256 388.854 779.429 427.365 779.429C486.998 779.429 535 731.063 535 671.4V154H635.22Z" fill="white"/>
</svg>
