<svg width="48" height="48" viewBox="0 0 48 48" fill="none" xmlns="http://www.w3.org/2000/svg">
<rect width="48" height="48" rx="12" fill="black"/>
<path fill-rule="evenodd" clip-rule="evenodd" d="M31.4874 9.34245C31.3135 8.66351 31.221 7.95194 31.221 7.21875H25.0781V19.2121V21.1882V31.4719C25.0781 34.2686 22.8281 36.5357 20.0328 36.5357C17.2375 36.5357 14.9714 34.2686 14.9714 31.4719C14.9714 28.6752 17.2375 26.408 20.0328 26.408C20.5913 26.408 21.107 26.4985 21.6094 26.6657V20.1223C21.0871 20.0493 20.5752 20.0116 20.0328 20.0116C13.7065 20.0116 8.57812 25.1425 8.57812 31.4719C8.57812 37.8012 13.7065 42.9321 20.0328 42.9321C26.2699 42.9321 31.3584 37.9446 31.5 31.7384V31.4719V19.3287C33.8513 20.9368 36.6823 21.8772 39.7454 21.8772V15.7473C35.7703 15.7473 32.4308 13.0252 31.4874 9.34245Z" fill="#FE2C55"/>
<path d="M18.439 18.4178C18.9814 18.4178 19.4933 18.4556 20.0156 18.5285V20.0116C11.1772 25.5938 11.1772 28.2188 11.1772 38.7414C8.61743 36.6396 6.98438 33.4497 6.98438 29.8781C6.98438 23.5488 12.1128 18.4179 18.439 18.4178Z" fill="#25F4EE"/>
<path d="M29.6272 5.625C29.6272 6.16969 29.6784 6.70244 29.7759 7.21875C29.7759 39.9375 20.0156 44.0625 15.7472 34.1671C16.5269 34.6579 17.4498 34.942 18.439 34.942C21.2343 34.942 23.4844 32.6748 23.4844 29.8781V5.625H29.6272Z" fill="#25F4EE"/>
<path d="M32.9748 12.4012C34.41 13.5004 36.2046 14.1535 38.1516 14.1535V15.5984C33.3047 15.5984 32.9748 12.4012 32.9748 12.4012Z" fill="#25F4EE"/>
<path d="M29.7759 7.21875C29.8097 7.39743 29.8489 7.57415 29.8937 7.7487C30.3749 9.62754 31.48 11.2563 32.9748 12.4012C34.2252 14.0339 36.0523 15.2012 38.1516 15.5984V20.2835C35.0885 20.2835 32.2575 19.343 29.9062 17.735V30.1447C29.7647 36.3509 24.6762 41.3384 18.439 41.3384C15.6826 41.3384 13.1536 40.3643 11.1772 38.7414C9.55309 36.7634 8.57813 34.2315 8.57812 31.4719C8.57812 25.1483 13.6973 20.0209 20.0156 20.0116V25.0719C19.5132 24.9048 18.9975 24.8143 18.439 24.8143C15.6437 24.8143 13.3776 27.0815 13.3776 29.8781C13.3776 31.6851 14.3237 33.2709 15.7472 34.1671C16.6431 35.5901 18.2275 36.5357 20.0327 36.5357C22.828 36.5357 25.0781 34.2686 25.0781 31.4719V7.21875H29.7759Z" fill="white"/>
</svg>
